<svg xmlns="http://www.w3.org/2000/svg" width="106.472" height="110.828" viewBox="0 0 106.472 110.828"><g id="exchange" transform="translate(194.48 -207.781) rotate(22)"><g id="Group_183" data-name="Group 183" transform="translate(-78 257.05)"><g id="Group_182" data-name="Group 182" transform="translate(0)"><g id="Group_181" data-name="Group 181" transform="translate(0)"><path id="Path_812" stroke="#000" stroke-width="2" d="M7.311,66.272a1.876,1.876,0,0,0,1.5-.038L23.648,59.49a1.907,1.907,0,0,0,.893-2.545,1.872,1.872,0,0,0-2.451-.912L11.7,60.763A36.688,36.688,0,0,1,81.8,63.08a1.9,1.9,0,0,0,3.666-.969A40.506,40.506,0,0,0,8.071,59.528L3.7,48.605a1.91,1.91,0,0,0-2.394-1.216A1.91,1.91,0,0,0,.092,49.783a1.169,1.169,0,0,0,.095.228l6.06,15.2A1.889,1.889,0,0,0,7.311,66.272Z" data-name="Path 812" transform="translate(0 -32.211)"/><path id="Path_813" stroke="#000" stroke-width="2" d="M117.67,304.726a.269.269,0,0,1-.038-.114l-6.06-15.2a1.889,1.889,0,0,0-1.064-1.064,1.958,1.958,0,0,0-1.5.038l-14.836,6.744a1.9,1.9,0,0,0,1.463,3.514l.114-.057,10.391-4.73A36.714,36.714,0,0,1,36,291.543a1.9,1.9,0,0,0-3.666.969A40.506,40.506,0,0,0,109.73,295.1l4.369,10.923a1.9,1.9,0,1,0,3.571-1.292Z" data-name="Path 813" transform="translate(-26.528 -242.627)"/></g></g></g></g></svg>